# xmcd
#
# Track frame offsets:
#	150
#	10676
#	21132
#	32931
#	44176
#	55674
#	66370
#	76782
#	87608
#	99502
#	110372
#	120365
#	131497
#	143894
#	155635
#	166977
#	179057
#	189288
#	200928
#	210083
#
# Disc length: 2940 seconds
# Revision: 3
# Processed by: cddbd v1.5.2PL0 Copyright (c) Steve Scherf et al.
# Submitted via: dBpowerAMP V12.0
#
DISCID=160b7a14
DTITLE=Patsy Cline - The Very Best Of Patsyt Cline
DYEAR=2006
DGENRE=Country
TTITLE0=Lovesick Blues
TTITLE1=Three Cigarettes In An Ashtray
TTITLE2=Walkin' After Midnight
TTITLE3=Hungry For Love
TTITLE4=Crazy Dreams
TTITLE5=Honky Tonk Merry Go Round
TTITLE6=I Love You, Honey
TTITLE7=I Cried All The Way To The Altar
TTITLE8=If I Could Only Stay Asleep
TTITLE9=I Can See An Angel
TTITLE10=Turn The Cards Slowly
TTITLE11=Stop The World (And Let Me Off)
TTITLE12=A Poor Man's Roses
TTITLE13=Never No More
TTITLE14=Dear God
TTITLE15=Today, Tomorrow And Forever
TTITLE16=Pick Me Up On Your Way Down
TTITLE17=Let The Teardrops Fall
TTITLE18=I Fall To Pieces
TTITLE19=Crazy
EXTD=
EXTT0=
EXTT1=
EXTT2=
EXTT3=
EXTT4=
EXTT5=
EXTT6=
EXTT7=
EXTT8=
EXTT9=
EXTT10=
EXTT11=
EXTT12=
EXTT13=
EXTT14=
EXTT15=
EXTT16=
EXTT17=
EXTT18=
EXTT19=
PLAYORDER=
